<?xml version="1.0" standalone="no"?>
<!DOCTYPE svg PUBLIC "-//W3C//DTD SVG 20010904//EN"
 "http://www.w3.org/TR/2001/REC-SVG-20010904/DTD/svg10.dtd">
<svg version="1.0" xmlns="http://www.w3.org/2000/svg"
 width="512.000000pt" height="512.000000pt" viewBox="0 0 512.000000 512.000000"
 preserveAspectRatio="xMidYMid meet">

<g transform="translate(0.000000,512.000000) scale(0.100000,-0.100000)"
fill="#000000" stroke="none">
<path d="M2350 5114 c-123 -12 -315 -46 -395 -69 -174 -51 -302 -135 -321
-211 -33 -131 -235 -460 -386 -627 -42 -47 -44 -48 -76 -36 -41 14 -128 7
-170 -15 -90 -47 -145 -134 -144 -228 l1 -58 -77 -45 c-82 -48 -204 -102 -329
-144 -53 -18 -83 -34 -97 -53 -19 -27 -19 -29 -2 -175 40 -334 112 -633 228
-943 61 -166 215 -479 303 -620 222 -352 516 -653 842 -859 76 -49 84 -57 121
-129 32 -62 82 -209 82 -243 0 -3 -33 -9 -72 -13 -206 -19 -452 -72 -572 -122
-77 -33 -161 -105 -171 -147 -26 -103 63 -188 262 -251 525 -165 1841 -165
2366 0 199 63 288 148 262 251 -10 42 -94 114 -171 147 -120 50 -366 103 -571
122 -40 4 -73 10 -73 14 0 35 47 176 81 240 38 75 45 82 122 131 326 206 620
507 842 859 88 141 242 454 303 620 116 310 188 609 228 943 17 146 17 148 -2
175 -14 19 -44 35 -97 53 -125 42 -247 96 -329 144 l-77 45 1 58 c2 161 -176
296 -319 241 -26 -10 -31 -8 -71 38 -152 169 -353 496 -386 627 -11 45 -81
111 -159 149 -171 84 -404 127 -722 132 -115 1 -230 1 -255 -1z m560 -189
c189 -28 378 -92 404 -138 15 -25 -19 -49 -121 -87 -184 -67 -419 -95 -713
-87 -286 8 -549 61 -653 133 -38 25 -38 26 -20 46 55 61 277 124 526 148 127
12 450 4 577 -15z m-1112 -353 c72 -37 196 -73 367 -104 105 -20 154 -23 395
-23 241 0 290 3 395 23 175 32 300 68 374 107 35 19 65 34 66 32 126 -227 189
-321 309 -465 65 -77 81 -103 74 -116 -5 -9 -12 -35 -16 -59 l-7 -42 -65 -6
c-78 -8 -110 -20 -162 -61 -48 -38 -84 -92 -100 -152 l-12 -45 -55 5 c-106 11
-236 -43 -297 -123 -15 -20 -38 -62 -50 -92 -22 -52 -25 -56 -51 -51 -15 3
-68 5 -118 5 -79 -1 -97 -4 -148 -30 -33 -16 -77 -47 -99 -68 l-40 -39 -37 34
c-102 98 -206 124 -374 96 -13 -2 -23 11 -40 53 -13 30 -36 72 -51 92 -61 80
-191 134 -297 123 l-55 -5 -12 45 c-16 60 -52 114 -100 152 -52 41 -84 53
-162 61 l-65 6 -7 42 c-4 24 -11 50 -16 59 -7 13 9 39 75 118 92 109 217 292
273 399 19 37 37 66 40 64 3 -1 33 -17 68 -35z m-633 -587 c31 -31 34 -86 5
-115 -45 -45 -111 -34 -134 22 -36 85 65 158 129 93z m2892 10 c71 -50 22
-172 -62 -151 -40 10 -65 41 -65 81 0 68 73 108 127 70z m-2562 -280 c44 -45
51 -100 18 -156 -47 -79 -164 -77 -213 4 -52 84 9 187 111 187 42 0 53 -5 84
-35z m2289 14 c56 -44 70 -110 36 -166 -49 -81 -166 -83 -213 -4 -33 56 -26
111 18 156 31 30 42 35 84 35 34 0 56 -6 75 -21z m-2792 -29 c18 -11 52 -22
75 -26 l43 -6 0 -44 c0 -60 35 -149 79 -197 48 -54 141 -97 206 -97 l51 0 13
-62 c7 -34 21 -78 31 -98 28 -56 96 -119 158 -148 48 -23 71 -27 144 -27 l87
0 11 -48 c24 -111 104 -213 208 -264 51 -25 67 -28 162 -28 94 0 111 3 161 27
30 15 74 45 97 66 l42 39 42 -39 c23 -21 67 -51 97 -66 50 -24 67 -27 161 -27
95 0 111 3 162 28 104 51 184 153 208 264 l11 48 87 0 c73 0 96 4 144 27 62
29 130 92 158 148 10 19 24 64 30 98 l13 62 51 0 c66 0 159 43 207 97 43 48
79 137 79 197 0 43 0 43 42 50 23 4 59 17 81 29 l38 21 47 -27 c72 -43 261
-132 319 -152 29 -9 55 -21 59 -26 13 -22 -30 -290 -81 -504 -67 -278 -138
-479 -259 -730 -309 -639 -762 -1077 -1364 -1319 -253 -102 -411 -102 -662 -1
-324 130 -573 296 -826 549 -261 262 -440 533 -608 917 -65 151 -158 438 -200
619 -38 166 -81 442 -73 464 3 8 30 22 59 31 70 23 240 103 303 143 59 37 65
38 107 12z m875 -221 c111 -54 125 -211 26 -286 -81 -62 -208 -32 -252 60 -25
52 -26 85 -6 134 21 50 42 72 90 94 52 24 89 24 142 -2z m1520 6 c50 -21 72
-42 94 -90 24 -52 24 -89 -2 -142 -44 -92 -171 -122 -252 -60 -99 75 -85 231
25 286 51 25 86 26 135 6z m-1012 -278 c63 -42 89 -88 93 -166 4 -82 -23 -141
-86 -186 -54 -37 -149 -47 -205 -20 -167 79 -168 308 -2 387 58 27 147 21 200
-15z m563 17 c140 -58 175 -239 68 -346 -91 -89 -246 -75 -320 30 -34 48 -46
136 -27 195 14 42 65 97 112 120 43 21 119 22 167 1z m-728 -2434 c155 -59
185 -65 345 -65 170 0 220 10 395 80 58 24 106 42 107 41 1 0 -7 -37 -18 -81
-33 -135 -26 -383 14 -460 39 -75 157 -52 157 31 0 18 -5 55 -12 83 -6 28 -9
54 -5 57 16 16 412 -52 527 -91 93 -32 105 -39 88 -52 -65 -51 -384 -113 -748
-145 -189 -16 -811 -16 -1000 0 -296 26 -559 70 -679 114 -70 26 -87 38 -69
49 27 17 166 59 258 78 120 24 349 55 357 48 3 -3 0 -29 -6 -57 -24 -110 -2
-160 68 -160 62 1 81 26 102 135 24 125 13 309 -27 438 -5 17 -4 17 33 2 21
-9 72 -30 113 -45z"/>
</g>
</svg>
